<svg width="13" height="12" viewBox="0 0 13 12" fill="none" xmlns="http://www.w3.org/2000/svg">
<path d="M9.13227 1.8125L10.122 0.822221C10.3283 0.615906 10.6081 0.5 10.8999 0.5C11.1916 0.5 11.4715 0.615906 11.6778 0.822221C11.8841 1.02854 12 1.30836 12 1.60013C12 1.8919 11.8841 2.17173 11.6778 2.37804L5.44805 8.60777C5.1379 8.91774 4.75542 9.14557 4.33516 9.2707L2.75998 9.74002L3.2293 8.16484C3.35443 7.74458 3.58226 7.3621 3.89223 7.05195L9.13227 1.8125ZM9.13227 1.8125L10.6799 3.36011M9.79988 7.39339V10.18C9.79988 10.5301 9.66081 10.8658 9.41327 11.1134C9.16572 11.3609 8.82998 11.5 8.4799 11.5H2.31998C1.9699 11.5 1.63416 11.3609 1.38661 11.1134C1.13907 10.8658 1 10.5301 1 10.18V4.0201C1 3.67002 1.13907 3.33427 1.38661 3.08673C1.63416 2.83919 1.9699 2.70012 2.31998 2.70012H5.10661" stroke="#4780FF" stroke-linecap="round" stroke-linejoin="round"/>
</svg>
