<svg width="18" height="18" viewBox="0 0 18 18" fill="none" xmlns="http://www.w3.org/2000/svg">
<circle cx="9" cy="9" r="9" fill="#FAFAFA"/>
<path fill-rule="evenodd" clip-rule="evenodd" d="M8.77917 5.09139C8.83776 5.03287 8.91719 5 9 5C9.08281 5 9.16224 5.03287 9.22083 5.09139L11.0958 6.96639C11.151 7.02563 11.1811 7.10398 11.1797 7.18494C11.1782 7.2659 11.1454 7.34315 11.0882 7.4004C11.0309 7.45766 10.9537 7.49045 10.8727 7.49188C10.7918 7.49331 10.7134 7.46326 10.6542 7.40806L9.3125 6.06639V10.9372C9.3125 11.0201 9.27958 11.0996 9.22097 11.1582C9.16237 11.2168 9.08288 11.2497 9 11.2497C8.91712 11.2497 8.83763 11.2168 8.77903 11.1582C8.72042 11.0996 8.6875 11.0201 8.6875 10.9372V6.06639L7.34583 7.40806C7.28659 7.46326 7.20824 7.49331 7.12728 7.49188C7.04632 7.49045 6.96908 7.45766 6.91182 7.4004C6.85457 7.34315 6.82177 7.2659 6.82034 7.18494C6.81892 7.10398 6.84897 7.02563 6.90417 6.96639L8.77917 5.09139ZM5.25 10.6247C5.33288 10.6247 5.41237 10.6576 5.47097 10.7163C5.52958 10.7749 5.5625 10.8543 5.5625 10.9372V11.8747C5.5625 12.0405 5.62835 12.1995 5.74556 12.3167C5.86277 12.4339 6.02174 12.4997 6.1875 12.4997H11.8125C11.9783 12.4997 12.1372 12.4339 12.2544 12.3167C12.3717 12.1995 12.4375 12.0405 12.4375 11.8747V10.9372C12.4375 10.8543 12.4704 10.7749 12.529 10.7163C12.5876 10.6576 12.6671 10.6247 12.75 10.6247C12.8329 10.6247 12.9124 10.6576 12.971 10.7163C13.0296 10.7749 13.0625 10.8543 13.0625 10.9372V11.8747C13.0625 12.2062 12.9308 12.5242 12.6964 12.7586C12.462 12.993 12.144 13.1247 11.8125 13.1247H6.1875C5.85598 13.1247 5.53804 12.993 5.30362 12.7586C5.0692 12.5242 4.9375 12.2062 4.9375 11.8747V10.9372C4.9375 10.8543 4.97042 10.7749 5.02903 10.7163C5.08763 10.6576 5.16712 10.6247 5.25 10.6247Z" fill="#4880FF"/>
</svg>
