<svg width="18" height="18" viewBox="0 0 18 18" fill="none" xmlns="http://www.w3.org/2000/svg">
<circle cx="9" cy="9" r="9" fill="#FAFAFA"/>
<path fill-rule="evenodd" clip-rule="evenodd" d="M11.5889 7.5554C11.4205 5.73791 10.2324 4.5 8.99826 4.5C7.76409 4.5 6.57601 5.73791 6.4076 7.5554H5.90625C6.07821 5.55551 7.39695 4 8.99826 4C10.5996 4 11.9183 5.55551 12.0903 7.5554H11.5889Z" fill="#4880FF"/>
<path fill-rule="evenodd" clip-rule="evenodd" d="M6 8.44336C5.44772 8.44336 5 8.89108 5 9.44336V12.7767C5 13.329 5.44772 13.7767 6 13.7767H12C12.5523 13.7767 13 13.329 13 12.7767V9.44336C13 8.89107 12.5523 8.44336 12 8.44336H6ZM8.99958 11.999C9.24504 11.999 9.44403 11.601 9.44403 11.1101C9.44403 10.6192 9.24504 10.2212 8.99958 10.2212C8.75412 10.2212 8.55514 10.6192 8.55514 11.1101C8.55514 11.601 8.75412 11.999 8.99958 11.999Z" fill="#4880FF"/>
</svg>
